<svg xmlns="http://www.w3.org/2000/svg" viewBox="0 0 145.00 140.00" data-guides="{&quot;vertical&quot;:[],&quot;horizontal&quot;:[]}"><defs/><path fill="" stroke="none" fill-opacity="0" stroke-width="1" stroke-opacity="1" id="tSvg335861a264" title="Path 1" d="M93 141C62.0268 141 31.5535 141 1.0402 141C1.0402 94.4011 1.0402 47.8021 1.0402 1.1016C49.223 1.1016 97.4463 1.1016 145.8348 1.1016C145.8348 47.6662 145.8348 94.333 145.8348 141C128.4692 141 110.9846 141 93 141ZM56.5702 52.1304C46.2476 46.1493 35.925 40.1683 25.1593 33.9305C22.3638 38.849 19.7735 43.4066 17.0233 48.2453C27.8988 54.6027 38.4883 60.793 48.5545 67.5679C40.9018 69.0167 33.2517 70.4799 25.5957 71.9112C11.4257 74.5603 11.4202 74.5536 15.1582 88.635C15.2753 89.0761 15.6668 89.4443 16.227 90.2993C27.2882 88.4314 38.4997 86.5381 49.7113 84.6448C49.9538 85.2543 50.1963 85.8638 50.4388 86.4733C43.1669 95.3801 35.895 104.2869 28.3752 113.4973C32.8289 117.2768 36.8 120.6467 40.9056 124.1308C48.8693 114.553 56.4416 105.446 64.0138 96.339C64.3724 96.4853 64.731 96.6316 65.0895 96.778C65.0895 104.6946 65.0895 112.6113 65.0895 120.5279C65.0896 133.6062 65.0864 133.5005 78.0247 133.1105C81.1578 133.016 81.9993 131.9065 81.958 128.97C81.8267 119.6452 81.8561 110.3168 81.9598 100.9914C81.9788 99.2747 82.6355 97.5651 83.2888 96.4812C90.8384 105.6431 98.3879 114.805 106.1065 124.172C110.382 120.5204 114.251 117.2161 118.4958 113.5907C116.4805 111.0164 114.6885 108.692 112.8593 106.3973C107.2015 99.2996 101.5296 92.2133 96.0138 84.9773C96.0138 84.9773 96.1575 84.8251 97.0214 84.8177C108.4051 86.6171 119.7887 88.4165 131.0517 90.1968C136.2738 74.775 136.0527 74.4035 122.0481 71.9625C114.2293 70.5997 106.4367 69.0869 97.5474 67.4408C101.7493 64.8535 104.8201 62.902 107.9507 61.0516C111.2401 59.1072 114.6311 57.3328 117.9006 55.3565C130.4804 47.7524 130.4706 47.7322 122.4608 35.181C122.2952 34.9214 121.9502 34.7764 121.4505 34.3969C111.0284 40.2335 100.5069 46.1259 89.927 51.2317C92.8825 42.6031 95.827 33.9708 98.7966 25.3472C101.8102 16.5959 101.8211 16.5997 92.9816 13.5137C86.4393 11.2296 86.4789 11.2437 84.2324 17.5574C80.8184 27.1524 77.3432 36.7256 73.5185 47.351C70.0528 37.6404 67.1972 28.9764 63.8738 20.4956C59.7249 9.9081 62.2863 10.8095 51.3546 14.4439C45.0216 16.5495 45.0397 16.6699 47.1545 22.8495C50.5354 32.7289 53.9126 42.6097 56.5702 52.1304Z"/><path fill="#FAE58E" stroke="none" fill-opacity="1" stroke-width="1" stroke-opacity="1" id="tSvg1412ff5e476" title="Path 2" d="M82.9978 95.8522C82.6355 97.5651 81.9788 99.2747 81.9598 100.9914C81.8561 110.3168 81.8267 119.6452 81.958 128.97C81.9993 131.9065 81.1578 133.016 78.0247 133.1105C65.0864 133.5005 65.0896 133.6062 65.0895 120.5279C65.0895 112.6113 65.0895 104.6946 65.0895 96.778C64.731 96.6316 64.3724 96.4853 64.0138 96.339C56.4416 105.446 48.8693 114.553 40.9056 124.1308C36.8 120.6467 32.8289 117.2768 28.3752 113.4973C35.895 104.2869 43.1669 95.3801 50.4388 86.4733C50.1963 85.8638 49.9538 85.2543 49.7113 84.6448C38.4997 86.5381 27.2882 88.4314 16.227 90.2993C15.6668 89.4443 15.2753 89.0761 15.1582 88.635C11.4202 74.5536 11.4257 74.5603 25.5957 71.9112C33.2517 70.4799 40.9018 69.0167 49.1462 67.2826C50.1793 67.005 50.6208 67.0127 51.1788 67.338C54.1679 69.7866 58.9256 71.5815 59.3825 74.1434C59.839 76.7025 55.9904 80.0293 53.9061 83.0705C53.8475 83.0704 53.9119 83.0195 54.4099 83.0143C58.0453 82.739 61.2471 82.4179 65.0828 82.0332C65.0828 86.0877 65.0828 89.5977 65.0828 94.5773C68.4896 90.681 70.8974 87.9273 73.0891 85.4206C76.2504 88.421 79.0877 91.1139 82.0314 94.0772C82.4245 94.8491 82.7112 95.3506 82.9978 95.8522ZM51.641 84.5555C51.641 84.5555 51.3845 84.4315 51.3845 84.4315Z"/><path fill="#FAE58D" stroke="none" fill-opacity="1" stroke-width="1" stroke-opacity="1" id="tSvgfc4436e6fb" title="Path 3" d="M83.1433 96.1667C82.7112 95.3506 82.4245 94.8491 82.0229 93.6348C81.9079 89.483 81.9079 86.044 81.9079 82.0428C85.7596 82.4092 88.9855 82.7161 93.4888 83.1446C90.6469 79.5112 88.676 76.9914 86.4225 74.1104C89.7635 71.8949 92.6858 69.9571 96.5498 67.3948C93.2515 66.7883 91.2031 66.1911 89.1285 66.079C85.5394 65.885 84.2883 64.6515 85.9016 61.058C86.9016 58.8304 87.3428 56.3519 88.2675 53.8442C88.6999 53.4031 88.8996 53.1038 89.3041 52.7316C89.7576 52.4868 89.9315 52.258 90.0189 51.9832C90.0071 51.9943 89.9853 52.0182 89.9853 52.0182C100.5069 46.1259 111.0284 40.2335 121.4505 34.3969C121.9502 34.7764 122.2952 34.9214 122.4608 35.181C130.4706 47.7322 130.4804 47.7524 117.9006 55.3565C114.6311 57.3328 111.2401 59.1072 107.9507 61.0516C104.8201 62.902 101.7493 64.8535 97.5474 67.4408C106.4367 69.0869 114.2293 70.5997 122.0481 71.9625C136.0527 74.4035 136.2738 74.775 131.0517 90.1968C119.7887 88.4165 108.4051 86.6171 96.4889 84.6703C95.8176 84.5025 95.6789 84.4822 95.5402 84.4618C95.6479 84.682 95.7555 84.9023 95.8631 85.1226C101.5296 92.2133 107.2015 99.2996 112.8593 106.3973C114.6885 108.692 116.4805 111.0164 118.4958 113.5907C114.251 117.2161 110.382 120.5204 106.1065 124.172C98.3879 114.805 90.8384 105.6431 83.1433 96.1667Z"/><path fill="#FAE58D" stroke="none" fill-opacity="1" stroke-width="1" stroke-opacity="1" id="tSvgf7f2366d41" title="Path 4" d="M89.0994 52.8044C88.8996 53.1038 88.6999 53.4031 87.9344 53.9614C84.3511 55.843 81.3335 57.4656 77.8362 59.3462C76.4134 55.5402 75.1327 52.1144 73.523 47.8084C71.8154 52.2325 70.4854 55.6785 69.0662 59.3553C65.3221 57.3055 62.1428 55.5649 58.8276 53.6399C58.225 53.1337 57.7582 52.8117 57.2914 52.4898C53.9126 42.6097 50.5354 32.7289 47.1545 22.8495C45.0397 16.6699 45.0216 16.5495 51.3546 14.4439C62.2863 10.8095 59.7249 9.9081 63.8738 20.4956C67.1972 28.9764 70.0528 37.6404 73.5185 47.351C77.3432 36.7256 80.8184 27.1524 84.2324 17.5574C86.4789 11.2437 86.4393 11.2296 92.9816 13.5137C101.8211 16.5997 101.8102 16.5959 98.7966 25.3472C95.827 33.9708 92.8825 42.6031 89.9562 51.6249C89.9853 52.0182 90.0071 51.9943 89.8167 52.0626C89.3925 52.31 89.2169 52.5345 89.0994 52.8044Z"/><path fill="#FAE58D" stroke="none" fill-opacity="1" stroke-width="1" stroke-opacity="1" id="tSvgfb2256e896" title="Path 5" d="M56.9308 52.3101C57.7582 52.8117 58.225 53.1337 58.8285 54.0477C59.9396 58.0185 60.9141 61.3973 62.0863 65.4617C58.048 66.0327 54.5551 66.5265 51.0622 67.0204C50.6208 67.0127 50.1793 67.005 49.4078 66.9903C38.4883 60.793 27.8988 54.6027 17.0233 48.2453C19.7735 43.4066 22.3638 38.849 25.1593 33.9305C35.925 40.1683 46.2476 46.1493 56.9308 52.3101Z"/><path fill="" stroke="none" fill-opacity="0" stroke-width="1" stroke-opacity="1" id="tSvg193f3f1e5a7" title="Path 6" d="M51.1788 67.338C54.5551 66.5265 58.048 66.0327 62.0863 65.4617C60.9141 61.3973 59.9396 58.0185 58.9642 54.232C62.1428 55.5649 65.3221 57.3055 69.0662 59.3553C70.4854 55.6785 71.8154 52.2325 73.523 47.8084C75.1327 52.1144 76.4134 55.5402 77.8362 59.3462C81.3335 57.4656 84.3511 55.843 87.7018 54.1032C87.3428 56.3519 86.9016 58.8304 85.9016 61.058C84.2883 64.6515 85.5394 65.885 89.1285 66.079C91.2031 66.1911 93.2515 66.7883 96.5498 67.3948C92.6858 69.9571 89.7635 71.8949 86.4225 74.1104C88.676 76.9914 90.6469 79.5112 93.4888 83.1446C88.9855 82.7161 85.7596 82.4092 81.9079 82.0428C81.9079 86.044 81.9079 89.483 81.9165 93.3644C79.0877 91.1139 76.2504 88.421 73.0891 85.4206C70.8974 87.9273 68.4896 90.681 65.0828 94.5773C65.0828 89.5977 65.0828 86.0877 65.0828 82.0332C61.2471 82.4179 58.0453 82.739 54.4216 83.0287C53.9997 82.9973 54.0291 83.0196 54.0291 83.0196C55.9904 80.0293 59.839 76.7025 59.3825 74.1434C58.9256 71.5815 54.1679 69.7866 51.1788 67.338Z"/><path fill="#F5F4F1" stroke="none" fill-opacity="1" stroke-width="1" stroke-opacity="1" id="tSvg14dc2ca87ba" title="Path 7" d="M53.988 82.9829C53.9119 83.0195 53.8475 83.0704 53.9061 83.0705Z"/><path fill="#F5F5F4" stroke="none" fill-opacity="1" stroke-width="1" stroke-opacity="1" id="tSvgc55a80128" title="Path 8" d="M51.5387 84.6247C51.4365 84.6939 51.3845 84.4315 51.3845 84.4315Z"/><path fill="#F5F5F4" stroke="none" fill-opacity="1" stroke-width="1" stroke-opacity="1" id="tSvg1ecb35bebf" title="Path 9" d="M89.3041 52.7316C89.2169 52.5345 89.3925 52.31 89.8285 52.0516Z"/><path fill="#F5F5F4" stroke="none" fill-opacity="1" stroke-width="1" stroke-opacity="1" id="tSvga8fd1cfec6" title="Path 10" d="M95.9384 85.0499C95.7555 84.9023 95.6479 84.682 95.5402 84.4618C95.6789 84.4822 95.8176 84.5025 96.0569 84.674C96.1575 84.8251 96.0138 84.9773 95.9384 85.0499Z"/></svg>